<svg width="260" height="260" fill="none" xmlns="http://www.w3.org/2000/svg"><path fill="#EEF4F9" d="M0 0h260v260H0z"/><path d="M83.385 150.996h-2.58v10.285h2.58v-10.285ZM92.664 157.302 88.526 151H85.93v10.284h2.492v-6.181l4.294 6.181h2.442V151h-2.494v6.302ZM100.192 155.103l4.295 6.181h2.44V151h-2.492v6.302L100.296 151h-2.597v10.284h2.493v-6.181ZM114.32 161.455a5.32 5.32 0 0 0 2.944-.912 5.322 5.322 0 0 0 2.231-5.461 5.315 5.315 0 0 0-10.525 1.058 5.207 5.207 0 0 0 5.35 5.315Zm0-8.31a3.011 3.011 0 1 1-2.701 2.995 2.714 2.714 0 0 1 .687-2.096 2.722 2.722 0 0 1 2.014-.899ZM127.203 161.284 131.029 151h-2.753l-2.615 7.67-2.649-7.67h-2.77l3.827 10.284h3.134ZM138.698 161.281h2.822l-3.999-10.285h-3.099l-4 10.285h2.718l.71-1.957h4.155l.693 1.957Zm-4.069-4.052 1.333-3.653 1.299 3.653h-2.632ZM146.817 161.284v-8.016h3.082V151h-8.727v2.268h3.082v8.016h2.563ZM154.224 150.996h-2.579v10.285h2.579v-10.285ZM161.616 150.823a5.316 5.316 0 1 0 5.367 5.316 5.2 5.2 0 0 0-3.298-4.96 5.21 5.21 0 0 0-2.069-.356Zm0 8.311a3.009 3.009 0 0 1-2.547-5.012 3.011 3.011 0 0 1 5.247 2.017 2.724 2.724 0 0 1-.69 2.092 2.724 2.724 0 0 1-2.01.903ZM175.763 151v6.302L171.625 151h-2.598v10.284h2.494v-6.181l4.294 6.181h2.442V151h-2.494ZM100.203 165.273l-4 10.285h2.718l.71-1.956h4.156l.692 1.956h2.822l-3.999-10.285h-3.099Zm.207 6.234 1.334-3.654 1.298 3.654h-2.632ZM117.809 172.581l-1.784-7.308h-2.597l-1.748 7.308-1.628-7.308h-2.579l2.44 10.286h3.169l1.593-6.667 1.61 6.667h3.203l2.442-10.286h-2.511l-1.61 7.308ZM126.101 165.273l-3.999 10.285h2.718l.71-1.956h4.155l.693 1.956h2.822l-4-10.285h-3.099Zm.208 6.234 1.333-3.654 1.299 3.654h-2.632ZM142.34 168.664c0-2.458-1.766-3.566-4.398-3.566a22.563 22.563 0 0 0-3.254.225v10.232h2.562v-3.289h.744l2.217 3.289h3.03l-2.753-3.843a3.369 3.369 0 0 0 1.852-3.048Zm-4.449 1.489h-.641v-2.787c.138-.018.502-.035.71-.035.97 0 1.766.364 1.766 1.403 0 1.056-.762 1.419-1.835 1.419ZM148.176 165.102a24.84 24.84 0 0 0-3.446.259v10.094c1.116.184 2.246.265 3.377.243 3.393 0 5.834-1.628 5.834-5.385 0-3.445-2.337-5.211-5.765-5.211Zm.242 8.345a11.09 11.09 0 0 1-1.108-.052v-5.87c.351-.035.704-.052 1.057-.052a2.653 2.653 0 0 1 2.925 2.84c.001 2.147-1.159 3.134-2.874 3.134ZM159.565 169.272c-1.091-.277-1.68-.485-1.68-1.143 0-.484.381-.831 1.16-.831a4.2 4.2 0 0 1 2.736 1.074v-2.528a5.247 5.247 0 0 0-2.839-.744c-2.026 0-3.567 1.16-3.567 3.185 0 1.714.796 2.684 2.926 3.221 1.039.259 1.576.484 1.576 1.108 0 .692-.676.917-1.455.917a4.648 4.648 0 0 1-2.839-1.056v2.528a5.645 5.645 0 0 0 2.856.727c2.182 0 3.965-.969 3.965-3.203 0-1.714-.727-2.701-2.839-3.255Z" fill="#5594C3"/><path d="m132.974 90.912 1.388 6.79-16.404 2.05-1.489-13.87 16.505 5.03Z" fill="#7FBFE1"/><path d="M120.583 127.679v-.001h-.006l-2.622-27.924-34.517 4.344 19.778 34.386 44.277-6.182-26.91-4.623Z" fill="#5594C3"/><path d="m175.619 85.453-5.326 43.683-6.59-.963 1.319-27.512-32.05-9.748-.464-2.24 43.111-3.22Z" fill="#D8DE41"/><path d="m139.777 124.207-5.416-26.504-16.404 2.05 2.628 27.925 26.911 4.623-.813-6.95-6.906-1.144Z" fill="#3279A9"/><path d="m146.684 125.352.812 6.949 15.862 2.705.331-6.833-17.005-2.821Z" fill="#7DBFE1"/><path d="m132.973 90.914 6.803 33.293 23.928 3.968 1.319-27.513-32.05-9.748Z" fill="#71B290"/><path d="M156.189 102.595a.98.98 0 0 1 .727.309 1.026 1.026 0 0 1 .302.737 1.04 1.04 0 0 1-1.027 1.05 1.01 1.01 0 0 1-.725-.308 1.065 1.065 0 0 1 .329-1.709.99.99 0 0 1 .394-.079Zm1.195 1.042a1.176 1.176 0 0 0-.351-.852 1.164 1.164 0 0 0-.84-.355 1.176 1.176 0 0 0-.839.355 1.174 1.174 0 0 0-.346.852 1.178 1.178 0 0 0 .346.86 1.152 1.152 0 0 0 .839.357 1.156 1.156 0 0 0 .84-.357 1.18 1.18 0 0 0 .351-.86Zm-.88-.264a.2.2 0 0 1-.134.209.545.545 0 0 1-.216.031h-.207v-.483h.195a.575.575 0 0 1 .277.051c.031.021.055.05.07.084.015.034.02.071.015.108Zm-.792-.403v1.332h.235v-.526h.178a.57.57 0 0 1 .254.042.33.33 0 0 1 .12.307v.105l.009.057.005.015h.216l-.008-.019-.013-.069-.003-.099v-.094a.35.35 0 0 0-.072-.209.296.296 0 0 0-.097-.089.292.292 0 0 0-.125-.04.487.487 0 0 0 .191-.065.295.295 0 0 0 .127-.264.323.323 0 0 0-.201-.334.98.98 0 0 0-.36-.051h-.456M117.223 110.174a9.557 9.557 0 0 0-6.886-2.635c-4.548 0-7.523 3.357-7.523 8.203 0 4.972 3.23 8.203 7.735 8.203a10.375 10.375 0 0 0 7.099-2.593v5.568a13.708 13.708 0 0 1-7.311 1.87c-7.905 0-13.048-5.356-13.048-13.048 0-7.736 5.355-13.05 13.048-13.05a13.358 13.358 0 0 1 6.886 1.701v5.781ZM136.832 123.651v4.718h-16.363v-25.248h16.109v4.718h-10.797v5.526h9.904v4.632h-9.904v5.654h11.051ZM139.234 121.606a10.996 10.996 0 0 0 6.842 2.593c2.168 0 4.081-.765 4.081-2.848 0-1.912-1.573-2.635-4.209-3.4-5.057-1.403-7.139-3.527-7.139-7.778 0-4.803 3.74-7.481 8.415-7.481a11.859 11.859 0 0 1 6.716 1.87v5.313a10.098 10.098 0 0 0-6.545-2.592c-2.169 0-3.359 1.063-3.359 2.635 0 1.786 1.445 2.508 4.378 3.316 5.058 1.445 7.013 3.698 7.013 7.948 0 5.27-4.165 7.608-9.351 7.608a12.796 12.796 0 0 1-6.843-1.828l.001-5.356Z" fill="#fff"/></svg>