<svg width="260" height="260" fill="none" xmlns="http://www.w3.org/2000/svg"><path fill="#EEF4F9" d="M0 0h260v260H0z"/><path d="M70.273 150.272h1.554v1.657h.034a2.617 2.617 0 0 1 2.537-1.847v1.692c-1.398 0-2.571.707-2.571 3.227v3.486h-1.554v-8.215ZM81.51 158.4c-.67.184-1.36.276-2.054.276-2.485 0-4.073-1.467-4.073-4.694 0-3.52 2.295-3.9 3.348-3.9 2.002 0 2.969 1.363 2.969 3.296v.397h-4.764c0 1.536.777 3.694 3.02 3.694a4.508 4.508 0 0 0 1.554-.294v1.225Zm-1.364-5.66a1.406 1.406 0 0 0-.924-1.367 1.401 1.401 0 0 0-.577-.083 1.577 1.577 0 0 0-1.64 1.45h3.141ZM88.118 157.227h-.035a2.378 2.378 0 0 1-2.278 1.449c-2.002 0-2.813-1.811-2.813-4.158 0-2.727 1.036-4.436 2.9-4.436a2.245 2.245 0 0 1 2.191 1.329h.035v-4.833h1.553v11.909h-1.553v-1.26Zm-1.778.242c1.26 0 1.778-1.744 1.778-3.107 0-1.433-.414-3.072-1.795-3.072-1.208 0-1.605 1.363-1.605 3.09 0 1.242.173 3.089 1.622 3.089Z" fill="#231F20"/><path d="M96.59 157.227h-.034a2.378 2.378 0 0 1-2.278 1.449c-2.002 0-2.813-1.811-2.813-4.158 0-2.727 1.035-4.436 2.9-4.436a2.246 2.246 0 0 1 2.191 1.329h.035v-4.833h1.553v11.909H96.59v-1.26Zm-1.777.242c1.26 0 1.778-1.744 1.778-3.107 0-1.433-.415-3.072-1.795-3.072-1.208 0-1.605 1.363-1.605 3.09 0 1.242.173 3.089 1.622 3.089ZM100.043 154.38c0-2.624 1.156-4.298 3.641-4.298 2.468 0 3.625 1.674 3.625 4.298 0 2.589-1.157 4.296-3.625 4.296-2.485 0-3.641-1.707-3.641-4.296Zm3.641 3.089c1.675 0 1.899-1.778 1.899-3.089 0-1.329-.224-3.09-1.899-3.09-1.708 0-1.915 1.761-1.915 3.09 0 1.311.207 3.089 1.915 3.089ZM113.57 158.554a5.791 5.791 0 0 1-1.225.121c-1.985 0-2.468-.88-2.468-2.002v-5.195h-1.467v-1.208h1.467v-1.932l1.553-.967v2.899h2.278v1.208h-2.278v4.383c0 .743.104 1.606 1.312 1.606.28-.002.559-.043.828-.121v1.208Z" fill="#D71C24"/><path d="M123.198 157.467h-.035a2.27 2.27 0 0 1-2.123 1.208 2.089 2.089 0 0 1-.901-.097 2.089 2.089 0 0 1-1.284-1.217 2.092 2.092 0 0 1-.144-.895c0-2.174 2.398-2.692 4.487-2.692v-1.433a1.168 1.168 0 0 0-1.26-1.053 1.197 1.197 0 0 0-.949.326 1.196 1.196 0 0 0-.363.935h-1.64c0-1.312.777-2.469 3.073-2.469a2.407 2.407 0 0 1 2.041.703 2.404 2.404 0 0 1 .651 2.059v5.643h-1.553v-1.018Zm-.311-2.658c-1.225 0-2.451.553-2.451 1.605a.965.965 0 0 0 .898 1.053 2.19 2.19 0 0 0 1.864-2.192v-.466h-.311ZM126.406 150.27h1.502l1.294 5.954h.034l1.795-5.954h1.174l1.795 5.954h.034l1.294-5.954h1.502l-1.847 8.215h-1.639l-1.709-5.696h-.034l-1.657 5.696h-1.64l-1.898-8.215ZM142.51 157.467h-.034a2.266 2.266 0 0 1-2.123 1.208 2.092 2.092 0 0 1-1.678-.564 2.1 2.1 0 0 1-.652-1.645c0-2.174 2.399-2.692 4.487-2.692v-1.433a1.167 1.167 0 0 0-1.26-1.053 1.194 1.194 0 0 0-1.233.753 1.191 1.191 0 0 0-.078.508h-1.64c0-1.312.777-2.469 3.072-2.469a2.407 2.407 0 0 1 2.041.703 2.404 2.404 0 0 1 .651 2.059v5.643h-1.553v-1.018Zm-.311-2.658c-1.225 0-2.451.553-2.451 1.605a.982.982 0 0 0 .228.715.965.965 0 0 0 .67.338 2.18 2.18 0 0 0 1.864-2.192v-.466h-.311ZM146.32 150.272h1.554v1.657h.034a2.615 2.615 0 0 1 2.537-1.847v1.692c-1.398 0-2.571.707-2.571 3.227v3.486h-1.554v-8.215ZM156.242 157.227h-.034a2.373 2.373 0 0 1-2.278 1.449c-2.002 0-2.813-1.811-2.813-4.158 0-2.727 1.036-4.436 2.9-4.436.457-.028.912.084 1.303.322.392.237.702.589.888 1.007h.034v-4.833h1.555v11.909h-1.555v-1.26Zm-1.777.242c1.261 0 1.777-1.744 1.777-3.107 0-1.433-.413-3.072-1.794-3.072-1.207 0-1.606 1.363-1.606 3.09 0 1.242.173 3.089 1.623 3.089ZM164.977 157.227c1.432-1.156 5.228-4.711 5.228-7.006a1.532 1.532 0 0 0-.446-1.223 1.531 1.531 0 0 0-1.227-.434 1.464 1.464 0 0 0-1.527.885c-.082.195-.12.405-.113.617h-1.898c.121-1.157.793-2.711 3.555-2.711 1.864 0 3.382 1.054 3.382 2.987 0 3.071-3.055 5.332-4.883 6.937h4.97v1.208h-7.041v-1.26ZM174.258 153.017c0-2.883.811-5.662 3.987-5.662 3.174 0 4.02 2.779 4.02 5.662 0 2.881-.846 5.66-4.02 5.66-3.176 0-3.987-2.779-3.987-5.66Zm3.987 4.452c2.018 0 2.294-2.416 2.294-4.452 0-2.021-.276-4.453-2.294-4.453-1.986 0-2.262 2.432-2.262 4.453 0 2.036.276 4.452 2.262 4.452ZM186.82 149.099l-2.175 1.312v-1.501l2.45-1.363h1.45v10.941h-1.725v-9.389ZM197.709 153.051a3.125 3.125 0 0 1-2.623 1.104c-2.123 0-3.055-1.466-3.055-3.434 0-2.14 1.381-3.366 3.556-3.366 3.313 0 3.848 2.485 3.848 5.816 0 2.865-.57 5.506-3.848 5.506-2.675 0-3.262-1.623-3.331-2.554h1.915a1.347 1.347 0 0 0 .427.981 1.355 1.355 0 0 0 1.005.365c1.191 0 2.106-.846 2.106-3.815v-.603Zm-2.088-.104c1.243 0 1.915-.863 1.915-2.174 0-1.156-.604-2.209-1.845-2.209-1.555 0-1.951 1-1.951 2.192 0 1.225.484 2.191 1.881 2.191Z" fill="#231F20"/><path d="M110.22 116.67a5.01 5.01 0 0 1-.708 2.617 14.447 14.447 0 0 1-1.877 2.443 15.454 15.454 0 0 1-2.572 2.463 14.71 14.71 0 0 1-2.997 1.989 12.21 12.21 0 0 1-3.134 1.181 5.893 5.893 0 0 1-2.532-.191 3.118 3.118 0 0 1-1.633-1.176 3.305 3.305 0 0 1-.525-2.029 6.504 6.504 0 0 1 .678-2.51 11.713 11.713 0 0 1 1.665-2.521 16.113 16.113 0 0 1 5.348-4.082 11.792 11.792 0 0 1 2.989-.972 6.656 6.656 0 0 1 2.528.002 3.497 3.497 0 0 1 1.85.894 3.1 3.1 0 0 1 .92 1.892Zm-3.536 3.135a1.505 1.505 0 0 0-.352-.937 1.625 1.625 0 0 0-.851-.494c-.399-.09-.813-.1-1.216-.03a5.564 5.564 0 0 0-1.458.455 7.617 7.617 0 0 0-2.613 1.996 5.466 5.466 0 0 0-.793 1.233 3.01 3.01 0 0 0-.296 1.216c-.013.345.09.684.29.965.205.264.489.455.81.544.397.11.812.135 1.218.074a5.358 5.358 0 0 0 1.502-.444 7.62 7.62 0 0 0 2.715-2.074 5.31 5.31 0 0 0 .791-1.277 2.82 2.82 0 0 0 .253-1.227Z" fill="url(#a)"/><path d="M81.227 89.069c-2.938 1.83-4.685 2.792-6.839 5.43a13.15 13.15 0 0 0-1.974 2.89c-.3.611-.655 1.617-.655 1.617l-.15 1.128-.232 1.526-.116 1.369-.019.464a5.66 5.66 0 0 1 .068-.726 8.254 8.254 0 0 1 .162-.777 16.466 16.466 0 0 1 1.904-4.362 17.642 17.642 0 0 1 3.305-4.066 34.67 34.67 0 0 1 4.143-3.712c1.06-.778 3.646-2.407 5.174-2.616a7.337 7.337 0 0 0-2.169.436c-.898.406-1.767.874-2.602 1.398Z" fill="url(#b)"/><path d="m102.57 90.258-1.116-1.16-1.185-1.047-.6-.47-1.352-.54c-.85-.31-1.726-.546-2.616-.708a11.013 11.013 0 0 0-3.541-.078 15.29 15.29 0 0 0-3.179 1.056 30.741 30.741 0 0 0-3.996 2.088 40.358 40.358 0 0 0-5.443 4.028 41.295 41.295 0 0 0-4.592 4.716 30.934 30.934 0 0 0-3.418 5.009 15.293 15.293 0 0 0-1.54 4.88 8.529 8.529 0 0 0-.025.861c.099 1.127.282 2.244.547 3.343.101.472.228.937.38 1.395.215.626.67 1.558.67 1.558l.226.398.504.824a4.8 4.8 0 0 1-.467-.941 5.745 5.745 0 0 1-.277-1.085 7.375 7.375 0 0 1-.086-1.217c.005-.451.042-.9.11-1.345.314-1.83.925-3.596 1.81-5.229a31.613 31.613 0 0 1 3.541-5.313 41.468 41.468 0 0 1 4.794-4.959 40.32 40.32 0 0 1 5.712-4.199 30.328 30.328 0 0 1 4.72-2.35 18.677 18.677 0 0 1 4.26-1.136 9.629 9.629 0 0 1 3.575.128 5.012 5.012 0 0 1 2.584 1.493" fill="url(#c)"/><path d="m109.782 99.128-1.842-4.87-.478-1.066a5.387 5.387 0 0 0-2.903-2.222 12.973 12.973 0 0 0-4.844-.24 19.073 19.073 0 0 0-5.022 1.307 31.874 31.874 0 0 0-5.532 2.91 42.208 42.208 0 0 0-10.75 10.125 30.749 30.749 0 0 0-3.397 5.747 16.437 16.437 0 0 0-1.48 5.569 9.228 9.228 0 0 0 .067 1.844c.074.545.216 1.078.422 1.588.191.472.45.915.766 1.314.314.393.685.737 1.1 1.021l1.448.921 1.379.737 1.527.673 1.367.488a5.885 5.885 0 0 1-1.753-.875 5.061 5.061 0 0 1-1.266-1.35 5.83 5.83 0 0 1-.75-1.788 8.252 8.252 0 0 1-.209-2.192 14.95 14.95 0 0 1 1.256-5.244 27.415 27.415 0 0 1 3.09-5.397 37.385 37.385 0 0 1 10-9.424 27.69 27.69 0 0 1 5.745-2.845 20.06 20.06 0 0 1 5.81-1.103 7.28 7.28 0 0 1 4.009 1.072c1.095.724 1.304 1.943 1.665 3.422l.575-.122Z" fill="url(#d)"/><path d="M111.222 109.185c.128-.357.897-.621.997-.982.101-.363.189-.728.262-1.094.074-.367.294-2.377.312-2.749a3.808 3.808 0 0 0-.172-.632 5.03 5.03 0 0 0-2.013-2.04 9.742 9.742 0 0 0-4.556-1.184c-1.706.001-3.4.289-5.01.853a26.579 26.579 0 0 0-5.622 2.689 34.536 34.536 0 0 0-5.334 4.097 33.335 33.335 0 0 0-4.254 4.797 24.135 24.135 0 0 0-2.858 5.066 12.802 12.802 0 0 0-1.033 4.874 6.84 6.84 0 0 0 .482 2.532 5.027 5.027 0 0 0 1.33 1.871 4.779 4.779 0 0 0 2.107 1.112c.92.216 1.86.345 2.805.385l.227-.007 1.618-.102 1.58-.2.784-.138 1.445-.323 1.396-.398.381-.125 1.27-.462.271-.11a14.562 14.562 0 0 1-4.094 1.077 7.608 7.608 0 0 1-3.259-.32 4.394 4.394 0 0 1-2.163-1.582 4.992 4.992 0 0 1-.864-2.709 9.873 9.873 0 0 1 .719-3.91 18.462 18.462 0 0 1 2.23-4.085 25.72 25.72 0 0 1 3.396-3.867 26.582 26.582 0 0 1 4.298-3.273 20.42 20.42 0 0 1 4.531-2.097 11.695 11.695 0 0 1 4.016-.586 5.72 5.72 0 0 1 3.097.982 4.312 4.312 0 0 1 1.678 2.64" fill="url(#e)"/><path d="M93.474 88.778a6.05 6.05 0 0 1-1.36 2.186 15.646 15.646 0 0 1-2.623 2.256 24.495 24.495 0 0 1-3.503 2.026 24.78 24.78 0 0 1-3.945 1.487c-1.16.339-2.356.545-3.563.613a6.309 6.309 0 0 1-2.505-.318 2.002 2.002 0 0 1-1.238-1.118 2.33 2.33 0 0 1 .182-1.787c.101-.222.217-.435.348-.64.143-.225.298-.441.464-.649a9.79 9.79 0 0 1 .57-.65c.205-.217.426-.433.663-.649l.636-.557.626-.506.592-.446.593-.415.582-.381.566-.344.56-.318c-.614.47-1.182 1-1.695 1.579a5.18 5.18 0 0 0-.715 1.085 1.06 1.06 0 0 0-.055.862 1.021 1.021 0 0 0 .647.517c.406.12.83.16 1.252.122a8.264 8.264 0 0 0 1.746-.324 12.869 12.869 0 0 0 3.627-1.71 8.102 8.102 0 0 0 1.303-1.091c.307-.305.55-.668.713-1.068a.952.952 0 0 0-.032-.837 1.157 1.157 0 0 0-.72-.468 2.86 2.86 0 0 0-1.249.024c-.564.074-1.122.18-1.673.318-.351.1-.693.23-1.022.387a16.932 16.932 0 0 1 3.16-1.303c.7-.231 1.416-.413 2.141-.544a8.557 8.557 0 0 1 2.288-.09 4.627 4.627 0 0 1 1.685.42c.411.185.743.511.935.92.176.453.183.953.02 1.411ZM109.983 118.202c-.159.433-.345.856-.557 1.266-.221.365-.464.717-.727 1.055 0 0-.161.212-.266.345-.295.377-.785.945-.785.945l-.656.712a19.055 19.055 0 0 1-2.304 2.019 23.288 23.288 0 0 1-2.775 1.777 24.335 24.335 0 0 1-3.11 1.425 22.75 22.75 0 0 1-3.294.967c-.22.046-.437.089-.652.126a17.083 17.083 0 0 1-1.258.181c-.204.023-.406.041-.605.055l-1.217.053-.268.001-1.301-.036-1.323-.12s-.227-.029-.37-.049c-.551-.078-.86-.129-1.404-.242-.554-.114-1.409-.341-1.409-.341l-.708-.238-.193-.094a8.831 8.831 0 0 0 1.8.479 15.3 15.3 0 0 0 2.084.166c.78.008 1.56-.029 2.336-.113a24.79 24.79 0 0 0 2.556-.41 30.162 30.162 0 0 0 5.938-1.948 31.172 31.172 0 0 0 5.305-3.009 24.064 24.064 0 0 0 4.126-3.648c.38-.421.728-.87 1.043-1.342.012-.016-.006.018-.006.018Z" fill="#D71C24"/><path d="m98.35 87.053 1.422.535 1.402.644.495.257c.372.193.716.436 1.021.723.285.27.522.585.699.933.179.358.292.746.334 1.143.046.453.021.91-.073 1.355a9.732 9.732 0 0 1-2.148 4.064 25.05 25.05 0 0 1-4.59 4.225 39.791 39.791 0 0 1-6.346 3.762 40.31 40.31 0 0 1-7.219 2.647c-1.93.521-3.915.82-5.913.893a11.876 11.876 0 0 1-4.284-.575 4.49 4.49 0 0 1-2.402-1.79 3.694 3.694 0 0 1-.38-2.757l.1-.454.405-1.506.507-1.456.521-1.232.478-1.004-.08.203c.018-.037-.019.042-.019.042a3.626 3.626 0 0 0-.311 2.6 2.891 2.891 0 0 0 1.704 1.723c1.135.443 2.351.64 3.568.575a21.706 21.706 0 0 0 5.158-.806 34.17 34.17 0 0 0 5.742-2.138 33.744 33.744 0 0 0 5.076-2.969 21.31 21.31 0 0 0 3.733-3.317 8.165 8.165 0 0 0 1.838-3.194c.125-.46.148-.943.067-1.414a2.42 2.42 0 0 0-.525-1.107 3.24 3.24 0 0 0-1.037-.8 5.23 5.23 0 0 0-.956-.366l-.523-.14c.176.023.35.056.523.1 0 0 .51.125.834.218.465.134 1.18.383 1.18.383Z" fill="#D71C24"/><path d="m107.786 93.39 1.057 1.327.96 1.424.429.728a4.763 4.763 0 0 1 .533 1.49c.05.28.077.563.082.847a6.37 6.37 0 0 1-.052.916 11.37 11.37 0 0 1-2.316 5.143 27.405 27.405 0 0 1-5.356 5.293 44.283 44.283 0 0 1-16.325 7.726 30.608 30.608 0 0 1-5.863.834 17.577 17.577 0 0 1-4.648-.39 8.768 8.768 0 0 1-3.253-1.425 5.026 5.026 0 0 1-1.757-2.268l-.335-.966-.46-1.652-.322-1.666-.067-.468-.092-.938c-.012-.09.003 0 .003 0 .11.875.499 1.691 1.11 2.327a6.53 6.53 0 0 0 2.954 1.664c1.512.408 3.08.577 4.644.501a29.618 29.618 0 0 0 6.119-.895 43.336 43.336 0 0 0 8.243-2.976 42.818 42.818 0 0 0 7.208-4.331 27.047 27.047 0 0 0 5.138-4.905 10.788 10.788 0 0 0 2.301-4.731c.065-.395.086-.795.063-1.194a4.295 4.295 0 0 0-.197-1.06 3.97 3.97 0 0 0-.812-1.428v-.004l.878.923.133.153Z" fill="#D71C24"/><path d="M112.999 105.788a11.66 11.66 0 0 1-.046 3.464 10.7 10.7 0 0 1-2.025 4.955 23.755 23.755 0 0 1-4.781 4.972 37.008 37.008 0 0 1-14.731 6.984 27.98 27.98 0 0 1-3.991.585 19.863 19.863 0 0 1-3.466-.042 13.262 13.262 0 0 1-2.862-.603 8.511 8.511 0 0 1-2.2-1.096l-1.305-1.016-1.09-.982s-.742-.725-1.172-1.229c-.31-.359-.756-.953-.756-.953a6.482 6.482 0 0 0 1.898 1.482c1.02.518 2.113.875 3.242 1.059 1.404.232 2.83.309 4.25.228a30.087 30.087 0 0 0 5.13-.724 41.664 41.664 0 0 0 16.058-7.607 26.25 26.25 0 0 0 5.224-5.318 11.43 11.43 0 0 0 2.216-5.227 7.47 7.47 0 0 0 .037-.529 3.754 3.754 0 0 0-.039-.519c.089.248.162.501.22.758 0 0 .138.826.189 1.358Z" fill="#D71C24"/><path d="M71.315 167.79h.03c.155-.336.406-.619.722-.813a1.881 1.881 0 0 1 1.052-.275c1.889 0 2.318 1.846 2.318 3.636 0 2.103-.787 3.491-2.762 3.491-2.562 0-2.648-2.118-2.648-2.976v-7.056h1.288v3.993Zm1.289 5.038c1.13 0 1.402-1.275 1.402-2.534 0-.987-.172-2.59-1.245-2.59-1.06 0-1.446 1.617-1.446 2.547 0 1.059.03 2.577 1.289 2.577ZM82.073 173.601a6.446 6.446 0 0 1-1.703.23c-2.061 0-3.378-1.217-3.378-3.894 0-2.919 1.904-3.234 2.777-3.234 1.66 0 2.461 1.131 2.461 2.734v.329h-3.95c0 1.273.644 3.063 2.505 3.063a3.71 3.71 0 0 0 1.288-.244v1.016Zm-1.13-4.694a1.168 1.168 0 0 0-1.246-1.202 1.307 1.307 0 0 0-1.36 1.202h2.605ZM86.733 169.752c.716.444 1.575.887 1.575 2.017 0 1.432-1.031 2.062-2.562 2.062a6.115 6.115 0 0 1-1.832-.272v-1.132a5.19 5.19 0 0 0 1.718.402c.615 0 1.387-.172 1.387-.873 0-.515-.63-.802-1.087-1.102l-.659-.402c-.615-.385-1.359-.843-1.359-1.845 0-1.232 1.002-1.904 2.419-1.904.522.024 1.04.106 1.545.244v1.158a3.732 3.732 0 0 0-1.56-.4c-.558 0-1.116.301-1.116.73 0 .472.544.73.987 1.002l.544.315ZM93.431 173.731a4.815 4.815 0 0 1-1.016.1c-1.646 0-2.046-.73-2.046-1.66v-4.308h-1.217v-1.002h1.217v-1.603l1.288-.801v2.404h1.889v1.002h-1.889v3.635c0 .616.086 1.331 1.087 1.331.233-.002.464-.036.687-.101v1.003ZM98.223 170.267c0-2.176.959-3.564 3.019-3.564 2.047 0 3.006 1.388 3.006 3.564 0 2.147-.959 3.564-3.006 3.564-2.06 0-3.02-1.417-3.02-3.564Zm3.019 2.562c1.389 0 1.575-1.475 1.575-2.562 0-1.102-.186-2.562-1.575-2.562-1.416 0-1.588 1.46-1.588 2.562 0 1.087.172 2.562 1.588 2.562ZM106.391 167.864h-1.231v-1.003h1.231v-.786c0-1.602.859-2.434 2.604-2.434.462-.006.922.037 1.374.129v1.074a4.596 4.596 0 0 0-1.359-.2c-1.031 0-1.331.829-1.331 1.517v.7h2.032v1.003h-2.032v5.81h-1.288v-5.81ZM119.064 173.731a4.816 4.816 0 0 1-1.016.1c-1.646 0-2.047-.73-2.047-1.66v-4.308h-1.216v-1.002h1.216v-1.603l1.289-.801v2.404h1.889v1.002h-1.889v3.635c0 .616.085 1.331 1.087 1.331.233-.002.464-.036.687-.101v1.003ZM120.852 163.797h1.287v4.522h.029a2.282 2.282 0 0 1 2.161-1.617c1.575 0 1.832 1.402 1.832 2.247v4.722h-1.288v-3.72c0-1.26 0-1.96-.93-1.96-1.059 0-1.804 1.43-1.804 2.79v2.89h-1.287v-9.874ZM132.655 173.601a6.491 6.491 0 0 1-1.703.23c-2.061 0-3.378-1.217-3.378-3.894 0-2.919 1.904-3.234 2.777-3.234 1.66 0 2.461 1.131 2.461 2.734v.329h-3.949c0 1.273.644 3.063 2.504 3.063.44-.004.876-.087 1.288-.244v1.016Zm-1.131-4.694a1.174 1.174 0 0 0-.356-.877 1.168 1.168 0 0 0-.889-.325 1.305 1.305 0 0 0-1.359 1.202h2.604ZM139.792 167.79h.029a1.878 1.878 0 0 1 1.775-1.088c1.888 0 2.317 1.846 2.317 3.636 0 2.103-.787 3.491-2.761 3.491-2.562 0-2.648-2.118-2.648-2.976v-7.056h1.288v3.993Zm1.288 5.038c1.13 0 1.403-1.275 1.403-2.534 0-.987-.172-2.59-1.245-2.59-1.06 0-1.446 1.617-1.446 2.547 0 1.059.029 2.577 1.288 2.577ZM150.553 173.601a6.45 6.45 0 0 1-1.703.23c-2.061 0-3.377-1.217-3.377-3.894 0-2.919 1.903-3.234 2.776-3.234 1.659 0 2.461 1.131 2.461 2.734v.329h-3.95c0 1.273.644 3.063 2.505 3.063.44-.004.876-.087 1.288-.244v1.016Zm-1.13-4.694a1.159 1.159 0 0 0-.357-.876 1.156 1.156 0 0 0-.888-.326 1.305 1.305 0 0 0-1.361 1.202h2.606ZM155.214 169.752c.716.444 1.574.887 1.574 2.017 0 1.432-1.03 2.062-2.562 2.062a6.112 6.112 0 0 1-1.831-.272v-1.132a5.186 5.186 0 0 0 1.717.402c.615 0 1.388-.172 1.388-.873 0-.515-.63-.802-1.088-1.102l-.658-.402c-.615-.385-1.359-.843-1.359-1.845 0-1.232 1.001-1.904 2.418-1.904a7.097 7.097 0 0 1 1.546.244v1.158a3.738 3.738 0 0 0-1.561-.4c-.557 0-1.116.301-1.116.73 0 .472.544.73.988 1.002l.544.315ZM161.907 173.731a4.816 4.816 0 0 1-1.016.1c-1.645 0-2.047-.73-2.047-1.66v-4.308h-1.215v-1.002h1.215v-1.603l1.289-.801v2.404h1.889v1.002h-1.889v3.635c0 .616.086 1.331 1.088 1.331a2.53 2.53 0 0 0 .686-.101v1.003Z" fill="#231F20"/><defs><radialGradient id="a" cx="0" cy="0" r="1" gradientUnits="userSpaceOnUse" gradientTransform="translate(104.539 113.762) scale(15.6796)"><stop stop-color="#fff"/><stop offset="1" stop-color="#D71C24"/></radialGradient><radialGradient id="c" cx="0" cy="0" r="1" gradientUnits="userSpaceOnUse" gradientTransform="matrix(1156.02 0 0 1073.63 49472.9 -47746.8)"><stop stop-color="#fff"/><stop offset="1" stop-color="#D71C24"/></radialGradient><radialGradient id="d" cx="0" cy="0" r="1" gradientUnits="userSpaceOnUse" gradientTransform="matrix(1372.02 0 0 1301.05 55407.8 -54316.2)"><stop stop-color="#fff"/><stop offset="1" stop-color="#D71C24"/></radialGradient><radialGradient id="e" cx="0" cy="0" r="1" gradientUnits="userSpaceOnUse" gradientTransform="matrix(995.708 0 0 913.151 47069.1 -44082.4)"><stop stop-color="#fff"/><stop offset="1" stop-color="#D71C24"/></radialGradient><linearGradient id="b" x1="78.677" y1="87.212" x2="78.677" y2="103.493" gradientUnits="userSpaceOnUse"><stop stop-color="#D71C24"/><stop offset="1" stop-color="#fff"/></linearGradient></defs></svg>